<?xml version="1.0" standalone="no"?>
<!DOCTYPE svg PUBLIC "-//W3C//DTD SVG 20010904//EN"
 "http://www.w3.org/TR/2001/REC-SVG-20010904/DTD/svg10.dtd">
<svg version="1.0" xmlns="http://www.w3.org/2000/svg"
 width="268.000000pt" height="182.000000pt" viewBox="0 0 268.000000 182.000000"
 preserveAspectRatio="xMidYMid meet">

<g transform="translate(0.000000,182.000000) scale(0.100000,-0.100000)"
fill="#000000" stroke="none">
<path d="M1610 1780 c-112 -24 -202 -96 -236 -191 -22 -63 -29 -187 -14 -259
23 -109 104 -193 217 -226 69 -20 217 -20 286 0 157 46 245 179 235 358 -8
144 -91 259 -218 304 -55 19 -208 27 -270 14z m178 -220 c46 -43 55 -175 15
-228 -38 -51 -129 -52 -161 -1 -34 53 -26 186 13 225 32 31 101 33 133 4z"/>
<path d="M41 1483 c0 -312 4 -342 52 -377 49 -36 239 -32 380 9 47 14 47 14
47 -11 l0 -24 118 0 c64 0 124 5 132 10 11 7 16 37 20 127 l5 118 70 0 70 0 3
-222 2 -223 120 0 c112 0 120 1 134 22 14 19 16 78 16 440 l0 418 -135 0 -134
0 -3 -117 -3 -118 -70 0 -70 0 -3 118 -3 117 -134 0 -135 0 0 -70 0 -70 -105
0 -105 0 0 70 0 70 -135 0 -135 0 1 -287z m479 -112 c0 -46 -2 -50 -30 -60
-17 -5 -57 -13 -89 -17 -54 -6 -60 -4 -75 17 -9 13 -16 43 -16 66 l0 43 105 0
105 0 0 -49z"/>
<path d="M2190 1330 l0 -440 119 0 c95 0 123 3 135 16 13 13 16 44 16 185 l0
169 63 0 c97 0 107 11 107 121 l0 89 -85 0 -85 0 0 150 0 150 -135 0 -135 0 0
-440z"/>
<path d="M70 835 c0 -194 8 -230 56 -262 26 -17 64 -18 544 -21 612 -3 559
-15 567 121 l6 87 -440 0 c-328 0 -442 3 -451 12 -8 8 -12 50 -12 125 l0 113
-135 0 -135 0 0 -175z"/>
<path d="M1402 828 c2 -149 6 -189 20 -214 32 -59 36 -59 561 -59 558 0 507
-12 507 122 l0 83 -389 0 c-214 0 -396 3 -405 6 -13 5 -16 26 -16 125 l0 119
-141 0 -141 0 4 -182z"/>
<path d="M405 230 c-3 -5 3 -10 14 -10 26 0 27 -9 4 -26 -17 -12 -16 -13 4
-14 12 0 25 5 28 10 3 6 11 10 16 10 6 0 4 -7 -5 -15 -8 -8 -28 -15 -45 -15
-17 0 -31 -4 -31 -10 0 -6 35 -10 85 -10 50 0 85 4 85 10 0 6 -16 10 -35 10
-19 0 -35 4 -35 9 0 4 11 6 25 3 33 -6 32 4 -2 22 l-28 15 33 1 c17 0 32 5 32
10 0 6 -30 10 -69 10 -39 0 -73 -4 -76 -10z"/>
<path d="M612 231 c-8 -4 -12 -19 -10 -32 3 -22 8 -24 70 -27 60 -3 67 -1 73
18 11 34 -12 50 -69 50 -28 0 -57 -4 -64 -9z m106 -28 c2 -9 -10 -13 -42 -13
-44 0 -68 13 -44 24 23 9 81 1 86 -11z"/>
<path d="M790 225 c0 -10 10 -15 31 -15 30 0 31 -1 25 -35 -5 -27 -4 -35 7
-35 14 0 27 40 27 81 0 16 -8 19 -45 19 -33 0 -45 -4 -45 -15z"/>
<path d="M910 221 c0 -11 -6 -22 -12 -25 -10 -5 -10 -7 0 -12 6 -3 12 -21 12
-40 0 -24 5 -34 15 -34 12 0 15 14 15 65 0 51 -3 65 -15 65 -8 0 -15 -9 -15
-19z"/>
<path d="M1066 224 c-19 -18 -20 -28 -6 -55 9 -15 22 -19 69 -19 44 0 60 4 65
16 11 29 6 53 -13 64 -30 15 -97 12 -115 -6z m104 -35 c0 -18 -5 -20 -42 -17
-31 2 -44 8 -46 21 -3 14 4 17 42 17 40 0 46 -3 46 -21z"/>
<path d="M1250 225 c0 -10 10 -15 30 -15 25 0 30 -4 30 -24 0 -19 -6 -25 -27
-28 -25 -3 -28 -7 -31 -45 l-3 -43 45 0 c34 0 46 4 46 15 0 11 -11 15 -36 15
-28 0 -35 4 -32 17 2 9 18 21 36 25 30 8 32 11 32 53 l0 45 -45 0 c-33 0 -45
-4 -45 -15z"/>
<path d="M1370 156 c0 -71 3 -86 15 -86 13 0 15 14 13 82 -2 54 -7 83 -15 86
-10 3 -13 -18 -13 -82z"/>
<path d="M1440 195 l0 -45 45 0 45 0 0 45 0 45 -45 0 -45 0 0 -45z m65 0 c0
-11 -8 -21 -17 -23 -14 -3 -18 3 -18 23 0 20 4 26 18 23 9 -2 17 -12 17 -23z"/>
<path d="M1550 195 c0 -33 4 -45 15 -45 8 0 15 7 15 15 0 8 5 15 10 15 6 0 10
7 10 15 0 8 -4 15 -10 15 -5 0 -10 7 -10 15 0 8 -7 15 -15 15 -11 0 -15 -12
-15 -45z"/>
<path d="M1640 225 c0 -10 16 -15 58 -18 l57 -3 -57 -2 -58 -2 0 -35 0 -36 67
3 c42 2 68 8 71 16 3 9 -13 12 -58 12 -38 0 -59 4 -55 10 3 6 31 10 61 10 53
0 54 0 54 30 l0 30 -70 0 c-54 0 -70 -3 -70 -15z"/>
<path d="M1900 205 l0 -35 70 0 c83 0 95 18 15 22 -30 2 -55 8 -55 13 0 6 25
11 55 13 80 4 68 22 -15 22 l-70 0 0 -35z"/>
<path d="M2085 231 c-3 -6 2 -14 12 -19 15 -9 16 -16 5 -62 -15 -63 -15 -80
-2 -80 6 0 13 14 17 30 7 38 18 38 32 0 9 -28 31 -42 31 -20 0 27 -30 81 -41
74 -9 -5 -10 -2 -6 10 4 10 7 24 7 32 0 8 9 14 20 14 11 0 20 7 20 15 0 11
-12 15 -44 15 -25 0 -47 -4 -51 -9z"/>
<path d="M2200 155 c0 -69 3 -85 15 -85 11 0 15 11 15 39 0 22 6 42 13 45 10
5 10 7 0 12 -7 3 -13 21 -13 40 0 24 -5 34 -15 34 -12 0 -15 -16 -15 -85z"/>
<path d="M590 145 c0 -13 13 -15 80 -13 107 4 108 22 3 26 -70 2 -83 0 -83
-13z"/>
<path d="M1890 150 c0 -6 33 -10 80 -10 47 0 80 4 80 10 0 6 -33 10 -80 10
-47 0 -80 -4 -80 -10z"/>
<path d="M400 130 c0 -6 32 -10 75 -10 43 0 75 4 75 10 0 6 -32 10 -75 10 -43
0 -75 -4 -75 -10z"/>
<path d="M1440 130 c0 -5 26 -11 58 -13 l57 -3 -57 -2 c-55 -2 -58 -3 -58 -27
0 -24 2 -25 70 -25 84 0 94 18 13 23 l-58 3 58 2 c54 2 57 3 57 27 0 24 -2 25
-70 25 -38 0 -70 -4 -70 -10z"/>
<path d="M790 95 l0 -35 75 0 c60 0 75 3 75 15 0 12 -13 15 -60 15 -53 0 -60
2 -60 20 0 11 -7 20 -15 20 -10 0 -15 -11 -15 -35z"/>
<path d="M1047 124 c-12 -12 4 -24 34 -24 22 0 29 -5 29 -20 0 -11 7 -20 15
-20 8 0 15 9 15 20 0 16 7 20 35 20 24 0 35 5 35 15 0 12 -15 15 -78 15 -43 0
-82 -3 -85 -6z"/>
<path d="M1900 95 l0 -35 70 0 c56 0 70 3 70 15 0 12 -13 15 -61 15 -37 0 -58
4 -54 10 3 6 31 10 61 10 30 0 54 5 54 10 0 6 -30 10 -70 10 l-70 0 0 -35z"/>
<path d="M600 90 l0 -31 73 3 c85 4 93 22 12 26 -40 2 -55 7 -55 17 0 8 -7 15
-15 15 -10 0 -15 -10 -15 -30z"/>
<path d="M1690 105 c0 -10 -11 -15 -35 -15 -19 0 -35 -4 -35 -10 0 -6 35 -10
85 -10 50 0 85 4 85 10 0 6 -16 10 -35 10 -24 0 -35 5 -35 15 0 8 -7 15 -15
15 -8 0 -15 -7 -15 -15z"/>
<path d="M413 94 c-3 -9 0 -20 8 -25 21 -13 93 -11 114 4 30 23 8 37 -56 37
-45 0 -61 -4 -66 -16z m90 -11 c-13 -2 -33 -2 -45 0 -13 2 -3 4 22 4 25 0 35
-2 23 -4z"/>
</g>
</svg>
